<svg width="157" height="140" viewBox="0 0 157 140" fill="none" xmlns="http://www.w3.org/2000/svg">
<g clip-path="url(#clip0_153_52)">
<path fill-rule="evenodd" clip-rule="evenodd" d="M46.2 24.3503L65.66 41.1303L64.83 42.4803H93.44L92.8 41.3403L111.91 24.4403C111.91 24.4403 117.6 19.2703 113.32 15.7903C109.04 12.3203 104.31 16.9403 104.31 16.9403L78.72 39.8503L54.53 17.4703C54.53 17.4703 49.17 11.3503 44.75 15.9203C40.67 20.1203 46.19 24.3603 46.19 24.3603L46.2 24.3503Z" fill="#1D1D1B"/>
<path fill-rule="evenodd" clip-rule="evenodd" d="M107.32 42.5303H50.88C35.55 42.5303 23.01 55.0703 23.01 70.4003V86.4203C23.01 101.75 35.55 114.29 50.88 114.29H107.32C122.65 114.29 135.19 101.75 135.19 86.4203V70.4003C135.19 55.0703 122.65 42.5303 107.32 42.5303ZM69.88 74.7703C71.59 76.0303 71.96 78.4603 70.7 80.1803C69.44 81.8903 67.01 82.2603 65.29 81.0003L60.83 77.7203L56.37 81.0003C54.66 82.2603 52.22 81.8903 50.96 80.1803C49.7 78.4703 50.07 76.0303 51.78 74.7703L54.29 72.9203L51.78 71.0703C50.07 69.8103 49.7 67.3803 50.96 65.6603C52.22 63.9503 54.65 63.5803 56.37 64.8403L60.83 68.1203L65.29 64.8403C67 63.5803 69.44 63.9503 70.7 65.6603C71.96 67.3703 71.59 69.8103 69.88 71.0703L67.37 72.9203L69.88 74.7703ZM106.39 74.7703C108.1 76.0303 108.47 78.4603 107.21 80.1803C105.95 81.8903 103.52 82.2603 101.8 81.0003L97.34 77.7203L92.88 81.0003C91.17 82.2603 88.73 81.8903 87.47 80.1803C86.21 78.4703 86.58 76.0303 88.29 74.7703L90.8 72.9203L88.29 71.0703C86.58 69.8103 86.21 67.3803 87.47 65.6603C88.73 63.9503 91.16 63.5803 92.88 64.8403L97.34 68.1203L101.8 64.8403C103.51 63.5803 105.95 63.9503 107.21 65.6603C108.47 67.3703 108.1 69.8103 106.39 71.0703L103.88 72.9203L106.39 74.7703Z" fill="#1D1D1B"/>
<path fill-rule="evenodd" clip-rule="evenodd" d="M28.16 32.1603C26.76 28.5303 22.08 26.9503 17.71 28.6303C15.61 29.4403 13.97 30.8603 12.98 32.5103C10.94 31.5403 8.30998 31.4103 5.77998 32.3903C1.40998 34.0803 -1.00002 38.3903 0.399975 42.0203C1.11998 43.9003 2.72997 45.2203 4.71997 45.8403C4.29997 47.1903 4.29998 48.6103 4.80998 49.9403C6.20998 53.5703 10.89 55.1503 15.26 53.4703C19.63 51.7803 22.04 47.4703 20.64 43.8403C20.44 43.3303 20.17 42.8603 19.86 42.4403C20.82 42.3703 21.81 42.1703 22.78 41.8003C27.15 40.1103 29.56 35.8003 28.16 32.1703V32.1603ZM21.04 40.9803C20.25 41.2803 18.89 41.5203 18.12 41.5703C18.38 41.9103 18.94 43.2003 19.09 43.6103C20.22 46.5503 18.3 49.6303 14.77 50.9903C11.23 52.3503 7.44998 51.0803 6.31998 48.1403C5.90998 47.0603 5.90998 45.9203 6.24998 44.8303C4.63998 44.3403 3.34998 43.2703 2.75998 41.7403C1.62998 38.8003 3.57998 35.3203 7.10998 33.9603C9.14997 33.1703 11.6 33.1103 13.25 33.9003C14.05 32.5603 15.06 31.5703 16.76 30.9203C20.3 29.5603 23.73 30.4903 24.86 33.4303C25.99 36.3703 24.59 39.6203 21.05 40.9803H21.04Z" fill="#1D1D1B"/>
<path fill-rule="evenodd" clip-rule="evenodd" d="M156.29 45.8003C155.8 44.3803 154.73 43.3203 153.38 42.7203C153.39 42.1403 153.31 41.5503 153.11 40.9803C152.1 38.0603 148.62 36.6203 145.33 37.7503C142.04 38.8903 140.19 42.1703 141.19 45.0903C141.43 45.7903 141.82 46.4103 142.32 46.9303C139.6 48.3103 138.17 51.2403 139.08 53.8903C140.09 56.8103 143.57 58.2503 146.86 57.1203C148.77 56.4603 150.19 55.0703 150.85 53.4603C151.28 53.4003 151.72 53.3003 152.15 53.1503C155.44 52.0103 157.29 48.7303 156.29 45.8103V45.8003ZM150.02 51.3103C149.73 51.4103 149.44 51.4803 149.14 51.5203C148.7 52.6103 147.74 53.5403 146.46 53.9803C144.25 54.7403 141.91 53.7703 141.23 51.8103C140.62 50.0403 141.58 48.0603 143.41 47.1403C143.08 46.7903 142.82 46.3803 142.65 45.9103C141.97 43.9503 143.22 41.7403 145.43 40.9803C147.64 40.2203 149.98 41.1903 150.66 43.1503C150.79 43.5303 150.85 43.9303 150.84 44.3203C151.75 44.7203 152.47 45.4403 152.8 46.3903C153.48 48.3503 152.23 50.5603 150.02 51.3203V51.3103Z" fill="black"/>
<path fill-rule="evenodd" clip-rule="evenodd" d="M84.46 20.3103C84.25 19.2003 83.53 18.3203 82.59 17.8503C82.66 17.4603 82.67 17.0503 82.59 16.6403C82.23 14.7503 80.41 13.5003 78.52 13.8503C77.16 14.1003 76.23 14.8603 75.89 16.1103C75.12 15.0703 73.73 14.7503 72.37 15.0103C70.48 15.3703 69.23 17.1903 69.58 19.0803C69.78 20.1703 70.48 21.0303 71.4 21.5103C71.33 21.9203 71.32 22.3403 71.4 22.7703C71.76 24.6603 73.36 26.1803 75.26 25.8203C76.64 25.5603 77.76 24.9003 78.09 23.6203C78.86 24.6903 80.3 24.7903 81.68 24.5303C83.57 24.1703 84.84 22.2103 84.48 20.3103H84.46ZM80.12 22.8103C79.16 22.9903 78.23 22.5703 77.7 21.8303C77.47 22.7203 76.76 23.4403 75.8 23.6203C74.48 23.8703 73.21 23.0003 72.97 21.6803C72.91 21.3803 72.92 21.0903 72.97 20.8103C72.34 20.4803 71.85 19.8803 71.71 19.1203C71.46 17.8003 72.33 16.5303 73.65 16.2903C74.59 16.1103 75.51 16.5103 76.04 17.2403C76.28 16.3703 76.98 15.6703 77.93 15.4903C79.25 15.2403 80.52 16.1103 80.76 17.4303C80.81 17.7203 80.81 18.0003 80.76 18.2703C81.41 18.6003 81.92 19.2103 82.06 19.9803C82.31 21.3003 81.44 22.5703 80.12 22.8103Z" fill="black"/>
<path fill-rule="evenodd" clip-rule="evenodd" d="M116.81 32.9103L148.13 0.000305176L151.52 2.96031L116.81 32.9103Z" fill="black"/>
<path fill-rule="evenodd" clip-rule="evenodd" d="M43.26 32.6903L8.19 3.8103L10.9 0.210297L43.26 32.6903Z" fill="black"/>
<path fill-rule="evenodd" clip-rule="evenodd" d="M121.44 34.0103L147.92 22.5603L149.62 25.0403L121.44 34.0103Z" fill="black"/>
<path fill-rule="evenodd" clip-rule="evenodd" d="M37.14 22.5603L24.07 8.37032L25.17 6.64032L37.14 22.5603Z" fill="black"/>
</g>
<defs>
<clipPath id="clip0_153_52">
<rect width="156.56" height="139.87" fill="white" transform="translate(0 0.000305176)"/>
</clipPath>
</defs>
</svg>
