<svg width="75" height="150" viewBox="0 0 75 150" fill="none" xmlns="http://www.w3.org/2000/svg">
<path d="M75 4.125C75 1.84683 73.1514 -0.0118331 70.8766 0.113327C52.4881 1.1251 35.0572 8.87675 21.967 21.967C7.90177 36.0322 1.73895e-06 55.1088 0 75C-1.73895e-06 94.8912 7.90176 113.968 21.967 128.033C35.0572 141.123 52.4881 148.875 70.8766 149.887C73.1514 150.012 75 148.153 75 145.875C75 143.597 73.1509 141.763 70.8771 141.623C54.6783 140.621 39.3434 133.742 27.8006 122.199C15.2826 109.681 8.25 92.7032 8.25 75C8.25 57.2968 15.2826 40.3187 27.8006 27.8006C39.3434 16.2579 54.6783 9.37914 70.8771 8.37734C73.1509 8.23671 75 6.40317 75 4.125Z" fill="url(#paint0_linear_481_651)"/>
<defs>
<linearGradient id="paint0_linear_481_651" x1="0" y1="150" x2="150" y2="0" gradientUnits="userSpaceOnUse">
<stop stop-color="#00C6FB"/>
<stop offset="1" stop-color="#005BEA"/>
</linearGradient>
</defs>
</svg>
