<svg width="60" height="120" viewBox="0 0 60 120" fill="none" xmlns="http://www.w3.org/2000/svg">
<path d="M-3.8147e-06 117C-3.8147e-06 118.657 1.34399 120.008 2.99878 119.925C9.85355 119.582 16.6064 118.065 22.961 115.433C30.2405 112.417 36.8549 107.998 42.4264 102.426C47.9979 96.8549 52.4175 90.2405 55.4328 82.961C58.4481 75.6815 60 67.8793 60 60C60 52.1207 58.4481 44.3185 55.4328 37.039C52.4175 29.7595 47.9979 23.1451 42.4264 17.5736C36.8549 12.0021 30.2405 7.58251 22.961 4.56723C16.6064 1.93507 9.85355 0.418003 2.99878 0.0749827C1.34399 -0.00782451 -3.8147e-06 1.34315 -3.8147e-06 3C-3.8147e-06 4.65685 1.34421 5.99131 2.99851 6.08331C9.06492 6.42068 15.0384 7.77992 20.6649 10.1105C27.2165 12.8243 33.1694 16.8019 38.1838 21.8162C43.1981 26.8306 47.1757 32.7835 49.8895 39.3351C52.6032 45.8867 54 52.9086 54 60C54 67.0914 52.6032 74.1133 49.8895 80.6649C47.1757 87.2165 43.1981 93.1694 38.1838 98.1838C33.1694 103.198 27.2165 107.176 20.6649 109.889C15.0384 112.22 9.06492 113.579 2.99851 113.917C1.34421 114.009 -3.8147e-06 115.343 -3.8147e-06 117Z" fill="url(#paint0_linear_481_650)"/>
<defs>
<linearGradient id="paint0_linear_481_650" x1="60" y1="0" x2="-60" y2="120" gradientUnits="userSpaceOnUse">
<stop stop-color="#00C6FB"/>
<stop offset="1" stop-color="#005BEA"/>
</linearGradient>
</defs>
</svg>
