<svg width="26" height="24" viewBox="0 0 26 24" fill="none" xmlns="http://www.w3.org/2000/svg">
<path d="M8.5 12.0039L24.25 12.0039" stroke="black" stroke-width="2.5" stroke-linecap="round" stroke-linejoin="round"/>
<path d="M21 8.00001L24.75 11.75L21 15.5" stroke="black" stroke-width="2.5" stroke-linecap="round" stroke-linejoin="round"/>
<path d="M16.75 16.5V21C16.7671 21.3796 16.6333 21.7505 16.3776 22.0316C16.122 22.3127 15.7655 22.4811 15.386 22.5H3.11304C2.73375 22.4808 2.37746 22.3123 2.12206 22.0312C1.86666 21.7501 1.73291 21.3794 1.75004 21V3C1.73264 2.62054 1.8663 2.24964 2.12176 1.96851C2.37721 1.68737 2.73365 1.51891 3.11304 1.5H15.386C15.7655 1.51891 16.122 1.68734 16.3776 1.96845C16.6333 2.24955 16.7671 2.62044 16.75 3V7.5" stroke="black" stroke-width="2.5" stroke-linecap="round" stroke-linejoin="round"/>
</svg>
