<svg width="24" height="24" viewBox="0 0 24 24" fill="none" xmlns="http://www.w3.org/2000/svg">
<path fill-rule="evenodd" clip-rule="evenodd" d="M1.41422 17.7859C0.633167 18.5669 0.633168 19.8332 1.41422 20.6143L3.38578 22.5858C4.16683 23.3669 5.43316 23.3669 6.21421 22.5858L22.5858 6.21438C23.3668 5.43333 23.3668 4.167 22.5858 3.38596L20.6142 1.41441C19.8331 0.633364 18.5668 0.633366 17.7858 1.41441L1.41422 17.7859ZM4.00001 18.4001C3.55818 18.8419 3.55818 19.5582 4.00001 20C4.44184 20.4419 5.15818 20.4419 5.60001 20L20 5.60014C20.4418 5.15832 20.4418 4.44198 20 4.00015C19.5582 3.55833 18.8418 3.55833 18.4 4.00015L4.00001 18.4001Z" fill="black"/>
<path fill-rule="evenodd" clip-rule="evenodd" d="M6.21421 1.41421C5.43315 0.633163 4.16682 0.633164 3.38577 1.41421L1.41421 3.38576C0.63316 4.16681 0.633162 5.43313 1.41421 6.21418L17.7858 22.5856C18.5668 23.3667 19.8331 23.3667 20.6142 22.5856L22.5857 20.6141C23.3668 19.833 23.3668 18.5667 22.5857 17.7857L6.21421 1.41421ZM5.59999 4C5.15816 3.55818 4.44182 3.55818 3.99999 4C3.55816 4.44183 3.55816 5.15817 3.99999 5.59999L18.4 19.9999C18.8418 20.4417 19.5581 20.4417 20 19.9999C20.4418 19.5581 20.4418 18.8417 20 18.3999L5.59999 4Z" fill="black"/>
<path fill-rule="evenodd" clip-rule="evenodd" d="M1.41422 17.7857C0.633167 18.5667 0.633168 19.8331 1.41422 20.6141L3.38578 22.5856C4.16683 23.3667 5.43316 23.3667 6.21421 22.5856L22.5858 6.2142C23.3668 5.43315 23.3668 4.16682 22.5858 3.38577L20.6142 1.41423C19.8331 0.633181 18.5668 0.633183 17.7858 1.41423L1.41422 17.7857ZM4.00001 18.3999C3.55818 18.8417 3.55818 19.558 4.00001 19.9999C4.44184 20.4417 5.15818 20.4417 5.60001 19.9999L20 5.59996C20.4418 5.15813 20.4418 4.44179 20 3.99997C19.5582 3.55814 18.8418 3.55814 18.4 3.99997L4.00001 18.3999Z" fill="black"/>
</svg>
