<svg width="32" height="32" viewBox="0 0 32 32" fill="none" xmlns="http://www.w3.org/2000/svg">
<path d="M11.9184 15.3951L31.116 15.5563" stroke="black" stroke-width="1.5" stroke-linecap="round" stroke-linejoin="round"/>
<path d="M25.6766 20.9958L31.1161 15.5564L25.585 10.0252" stroke="black" stroke-width="1.5" stroke-linecap="round" stroke-linejoin="round"/>
<path d="M19.7792 19.3908C18.9237 21.1027 17.5193 22.4784 15.7902 23.2985C14.061 24.1186 12.1067 24.3357 10.2392 23.9152C8.37166 23.4947 6.6985 22.4608 5.48673 20.9786C4.27496 19.4963 3.59441 17.6511 3.55368 15.7374C3.51296 13.8238 4.11441 11.9519 5.26206 10.4205C6.4097 8.88911 8.03739 7.78652 9.88539 7.28865C11.7334 6.79078 13.6952 6.92634 15.4577 7.67369C17.2202 8.42104 18.6819 9.7371 19.6094 11.4119" stroke="black" stroke-width="1.5" stroke-linecap="round" stroke-linejoin="round"/>
</svg>
