<svg width="24" height="24" viewBox="0 0 24 24" fill="none" xmlns="http://www.w3.org/2000/svg">
<path fill-rule="evenodd" clip-rule="evenodd" d="M2 0C0.895447 0 0 0.895508 0 2V4C0 5.10449 0.895447 6 2 6H22C23.1046 6 24 5.10449 24 4V2C24 0.895508 23.1046 0 22 0H2ZM3 2C2.44769 2 2 2.44775 2 3C2 3.55225 2.44769 4 3 4H21C21.5523 4 22 3.55225 22 3C22 2.44775 21.5523 2 21 2H3Z" fill="black"/>
<path fill-rule="evenodd" clip-rule="evenodd" d="M2 18C0.895431 18 0 18.8954 0 20V22C0 23.1046 0.89543 24 2 24H22C23.1046 24 24 23.1046 24 22V20C24 18.8954 23.1046 18 22 18H2ZM3 20C2.44772 20 2 20.4477 2 21C2 21.5523 2.44772 22 3 22H21C21.5523 22 22 21.5523 22 21C22 20.4477 21.5523 20 21 20H3Z" fill="black"/>
<path fill-rule="evenodd" clip-rule="evenodd" d="M2 9C0.895431 9 0 9.89543 0 11V13C0 14.1046 0.89543 15 2 15H22C23.1046 15 24 14.1046 24 13V11C24 9.89543 23.1046 9 22 9H2ZM3 11C2.44772 11 2 11.4477 2 12C2 12.5523 2.44772 13 3 13H21C21.5523 13 22 12.5523 22 12C22 11.4477 21.5523 11 21 11H3Z" fill="black"/>
</svg>
