<svg width="24" height="16" viewBox="0 0 24 16" fill="none" xmlns="http://www.w3.org/2000/svg">
<path d="M23.25 14.6522C23.25 14.7902 23.1381 14.9022 23 14.9022H1.71429C1.43763 14.9022 1.1845 14.8012 1.0078 14.6399C0.833383 14.4806 0.75 14.28 0.75 14.087V1.56522C0.75 1.37216 0.833383 1.17156 1.0078 1.01231C1.1845 0.850971 1.43763 0.75 1.71429 0.75H22.2857C22.5624 0.75 22.8155 0.850971 22.9922 1.01231C23.1666 1.17156 23.25 1.37216 23.25 1.56522V14.6522Z" stroke="black" stroke-width="1.5" stroke-linecap="round" stroke-linejoin="round"/>
<mask id="path-2-inside-1_433_361" fill="white">
<path d="M24 1L14.3821 9.11159C13.6991 9.68766 12.8616 10 12 10C11.1384 10 10.3009 9.68766 9.61795 9.11159L0 1"/>
</mask>
<path d="M24.9671 2.14665C25.6003 1.61255 25.6807 0.666217 25.1466 0.0329415C24.6126 -0.600334 23.6662 -0.680738 23.0329 -0.146646L24.9671 2.14665ZM14.3821 9.11159L13.415 7.96494L13.4149 7.96501L14.3821 9.11159ZM12 10V8.5V10ZM9.61795 9.11159L10.5851 7.96501L10.585 7.96494L9.61795 9.11159ZM0.967058 -0.146646C0.333783 -0.680738 -0.612555 -0.600334 -1.14665 0.0329416C-1.68074 0.666217 -1.60033 1.61255 -0.967058 2.14665L0.967058 -0.146646ZM23.0329 -0.146646L13.415 7.96494L15.3491 10.2582L24.9671 2.14665L23.0329 -0.146646ZM13.4149 7.96501C12.9917 8.32202 12.4937 8.5 12 8.5V11.5C13.2296 11.5 14.4066 11.0533 15.3492 10.2582L13.4149 7.96501ZM12 8.5C11.5063 8.5 11.0083 8.32202 10.5851 7.96501L8.6508 10.2582C9.59344 11.0533 10.7704 11.5 12 11.5V8.5ZM10.585 7.96494L0.967058 -0.146646L-0.967058 2.14665L8.65089 10.2582L10.585 7.96494Z" fill="black" mask="url(#path-2-inside-1_433_361)"/>
</svg>
