<svg width="24" height="24" viewBox="0 0 24 24" fill="none" xmlns="http://www.w3.org/2000/svg">
<path d="M8.66667 18H15.3333C16.2223 18 17 17.27 17 16.4357V12.5643C17 11.73 16.2223 11 15.3333 11H8.66667C7.77777 11 7 11.73 7 12.5643V16.4357C7 17.3743 7.77777 18 8.66667 18Z" stroke="black" stroke-width="1.5" stroke-miterlimit="10" stroke-linecap="round" stroke-linejoin="round"/>
<path d="M12 5C10.3001 5 9 6.4991 9 8.45945V11H15V8.45945C15 6.61441 13.6999 5 12 5Z" stroke="black" stroke-width="1.5" stroke-miterlimit="10" stroke-linecap="round" stroke-linejoin="round"/>
<path d="M4.04505 19.955C1.93526 17.8452 0.75 14.9837 0.75 12C0.75 9.01631 1.93526 6.15483 4.04505 4.04505C6.15483 1.93526 9.01632 0.75 12 0.75C14.9837 0.75 17.8452 1.93526 19.955 4.04505C22.0647 6.15483 23.25 9.01631 23.25 12C23.25 14.9837 22.0647 17.8452 19.955 19.955C17.8452 22.0647 14.9837 23.25 12 23.25C9.01632 23.25 6.15483 22.0647 4.04505 19.955Z" stroke="black" stroke-width="1.5" stroke-linecap="round" stroke-linejoin="round"/>
</svg>
